<?xml version="1.0" encoding="UTF-8"?>
<!DOCTYPE svg PUBLIC "-//W3C//DTD SVG 1.1//EN" "http://www.w3.org/Graphics/SVG/1.1/DTD/svg11.dtd">
<svg version="1.1" xmlns="http://www.w3.org/2000/svg" xmlns:xlink="http://www.w3.org/1999/xlink" x="0" y="0" width="800" height="800" viewBox="0, 0, 556, 544">
  <g id="Layer_1">
    <path d="M237.994,275.686 C235.845,276.559 232.973,277.204 230.796,275.751 C226.833,273.111 217.917,266.505 210.651,260.562 C203.385,254.618 197.112,260.892 190.838,254.948 C184.565,249.003 171.355,243.389 159.796,234.805 C155.358,231.506 151.116,226.793 147.196,221.847 C140.036,264.886 131.256,294.668 119.875,315.383 C109.778,333.756 97.104,345.84 80.409,352.654 C105.439,407.725 154.069,449.787 213.382,465.945 C213.883,463.467 214.297,461.291 214.573,459.834 C215.103,457.043 215.487,455.023 215.748,454.053 C216.687,450.557 217.354,408.197 216.878,405.152 L216.685,404.152 C215.983,400.476 214.117,390.719 211.302,384.006 C208.906,378.295 209.986,374.951 211.131,371.414 C211.722,369.592 212.331,367.705 212.648,365.16 C213.158,361.088 215.383,355.324 217.534,349.748 C219.689,344.168 221.915,338.396 222.005,335.314 L222.1,332.146 L223.314,332.783 C226.27,323.812 236.378,297.31 239.381,290.611 C242.6,283.43 240.125,281.944 239.381,278.971 C239.062,277.695 238.515,276.571 237.994,275.686 M133.935,204.08 C133.04,202.958 132.192,201.957 131.398,201.123 C124.794,194.189 110.924,187.584 110.924,187.584 C110.924,187.584 107.954,187.252 97.715,187.584 C97.807,187.468 97.865,187.344 97.951,187.228 C91.613,186.728 85.056,185.603 79.619,184.646 C68.361,210.06 62.094,238.177 62.094,267.762 C62.094,292.465 66.458,316.148 74.454,338.086 C102.523,326.633 120.756,293.703 133.935,204.08 M265.707,153.269 L267.416,153.24 C268.236,153.228 287.636,152.94 298.997,155.947 C303.571,157.159 314.524,161.264 327.208,166.018 C344.937,172.666 367.001,180.936 372.271,181.314 C376.169,181.592 381.999,182.104 387.69,182.605 C395.216,183.266 402.995,183.95 404.821,183.95 C404.915,183.95 408.081,183.999 412.358,184.199 C407.628,174.41 401.921,164.238 395.19,153.679 C361.476,100.787 283.497,82.585 227.583,95.542 C210.664,99.465 196.275,105.925 184.839,114.489 C185.999,116.266 186.876,117.576 186.876,117.576 C185.886,120.299 184.151,130.125 184.894,134.831 C185.246,137.065 185.263,140.578 185.184,143.739 C196.275,141.457 214.152,138.126 220.226,139.702 C229.144,142.011 232.446,143.334 241.692,146.634 C249.452,149.407 261.133,150.787 265.677,153.5 L265.707,153.269 z M339.933,276.247 C346.63,279.867 352.253,284.535 354.901,287.371 L355.53,286.779 L356.728,287.297 C356.874,287.359 371.483,293.641 377.319,294.342 C384.649,295.215 405.274,290.484 412.056,288.928 C413.905,288.504 415.589,288.156 417.167,287.869 C421.505,281.378 425.114,273.635 427.173,264.416 C431.474,245.175 428.446,222.777 418.265,197.542 C412.353,198.276 405.503,199.272 402.015,200.109 C403.335,200.834 405.118,201.652 406.276,202.181 C408.796,203.334 410.144,203.97 410.847,204.677 C412.106,205.933 413.005,208.119 412.288,209.854 C411.813,211.003 410.751,211.688 409.444,211.688 C408.784,211.688 407.366,211.533 404.478,211.206 C400.222,210.725 393.794,210 389.601,209.933 C384.019,209.843 381.489,207.34 378.562,204.444 C377.507,203.402 376.308,202.217 374.833,201 C370.548,197.473 365.214,195.352 361.687,193.948 C360.798,193.595 360.032,193.293 359.437,193.027 C357.731,192.267 349.866,191.009 340.757,189.553 C335.407,188.697 329.237,187.71 322.591,186.563 C311.589,184.667 307.841,183.148 305.603,182.241 C303.974,181.582 303.298,181.309 300.802,181.309 C294.302,181.309 259.706,182.354 259.359,182.367 L258.193,182.401 C257.11,184.255 256.173,185.466 255.562,185.6 C252.59,186.261 248.295,186.261 247.306,185.6 C246.317,184.94 240.704,186.261 244.004,188.573 C247.306,190.884 252.59,186.591 258.533,192.866 C264.479,199.141 279.749,216.272 280.657,218.624 C281.048,219.632 273.837,229.947 265.467,241.412 C275.517,230.761 284.88,221.812 287.181,222.751 C292.63,224.98 302.534,234.64 306.499,240.089 C310.462,245.537 314.425,272.285 306.003,285.658 C297.583,299.033 295.849,302.252 295.849,302.252 C295.849,302.252 305.157,291.648 308.728,285.906 C314.507,276.611 314.425,250.986 314.177,249.499 C313.927,248.012 330.769,271.295 339.933,276.247 M120.684,154.175 C120.648,153.83 120.616,153.475 120.566,153.167 C120.544,153.007 120.514,152.859 120.491,152.761 L120.361,152.557 C120.298,152.436 120.25,152.317 120.214,152.206 L120.194,152.125 L120.166,151.983 L120.117,151.697 C120.084,151.465 120.097,151.418 120.09,151.301 C120.098,149.782 120.273,148.752 120.418,147.543 C120.5,146.935 120.601,146.336 120.693,145.736 L116.259,144.193 L114.487,143.578 L115.024,141.791 C115.949,138.719 116.856,135.62 117.689,132.538 L118.285,130.243 L118.542,129.137 C118.567,129.014 118.594,128.882 118.615,128.773 L118.371,128.448 L117.634,127.515 L117.546,127.403 C109.44,136.061 102.076,145.421 95.552,155.381 C96.136,155.204 96.738,155.034 97.384,154.891 C102.174,153.828 114.886,154.049 120.684,154.175 M267.5,62.355 C228.633,62.355 192.289,73.153 161.299,91.909 C162.229,92.534 163.16,93.282 164.09,94.212 C167.333,97.455 171.708,99.905 174.987,101.934 C188.197,92.022 204.686,84.579 224.005,80.101 C255.924,72.702 293.146,74.563 326.124,85.2 C362.017,96.776 391.29,118.071 408.556,145.161 C417.595,159.341 424.919,172.961 430.595,186.015 C432.528,186.408 434.099,186.874 435.04,187.426 C436.907,188.106 437.88,189.144 437.925,190.505 C437.991,192.43 436.048,193.542 435.183,193.942 C434.952,194.099 434.587,194.339 434.126,194.609 C444.581,221.759 447.466,246.285 442.642,267.871 C440.966,275.377 438.458,282.071 435.423,288.053 C439.163,288.896 443.39,290.199 448.997,291.939 L449.745,292.172 C456.626,294.307 463.646,296.469 470.692,297.951 C472.146,288.098 472.907,278.018 472.907,267.762 C472.907,154.317 380.944,62.355 267.5,62.355 M449.104,323.791 L448.812,323.818 L448.522,323.762 C438.185,321.726 414.116,324.236 398.003,326.43 C365.511,349.211 334.747,393.498 336.962,432.42 C337.507,442.012 340.083,450.603 344.63,458.18 C402.487,434.721 447.226,385.67 464.796,325.062 C458.306,324.058 452.249,323.478 449.104,323.791 M321.136,433.316 C321.651,442.412 323.819,453.086 329.501,463.635 C309.937,469.822 289.11,473.166 267.5,473.166 C258.799,473.166 250.224,472.621 241.807,471.57 C242.935,467.357 243.847,464.129 244.203,463.205 C245.423,460.033 256.5,421.517 255.473,406.633 C255.04,400.328 253.655,394.68 252.542,390.139 C251.154,384.469 250.054,379.988 251.49,377.56 C254.648,372.217 273.087,344.252 273.275,343.971 L274.097,342.721 C275.974,342.576 277.712,342.379 279.255,342.127 C280.493,336.183 288.665,314.389 289.657,313.15 C290.649,311.912 329.036,324.541 329.036,324.541 C329.036,324.541 329.085,324.344 329.169,324.025 C335.843,325.465 351.847,329.182 355.573,331.23 C359.271,333.266 362.388,333.928 364.899,334.148 C339.231,360.758 319.118,397.816 321.136,433.316" fill="#D3DB34"/>
    <path d="M547.944,368.914 C543.532,363.225 535.427,342.957 528.271,325.053 C525.478,318.066 522.839,311.467 520.649,306.324 L519.892,304.553 C517.196,298.287 514.827,292.773 516.979,289.814 C519.257,290.58 522.655,292.492 525.272,296.416 C530.017,303.535 551.028,351.648 551.694,359.871 C552.173,365.767 549.259,368.148 547.944,368.914 M541.851,365.578 C540.501,362.603 532.653,352.939 528.888,349.98 C527.702,349.047 526.03,347.543 524.261,345.951 C519.507,341.668 517.093,339.609 515.513,339.215 C515.226,339.141 514.919,339.109 514.587,339.109 C513.636,339.109 512.466,339.375 510.868,339.762 C509.726,340.037 507.479,340.601 506.528,340.48 C505.712,336.266 502.397,335.5 499.132,334.748 C498.394,334.576 497.788,334.469 497.29,334.377 C496.866,334.303 496.392,334.217 496.392,334.264 C496.38,334.246 496.317,334.141 496.2,333.832 C502.813,327.613 499.218,319.764 496.29,313.383 C494.616,309.734 493.048,306.269 493.519,303.674 C495.087,303.414 495.935,302.551 497.759,300.271 C499.306,298.336 504.612,294.896 513.53,290.045 C514.114,289.73 514.544,289.494 514.675,289.406 L514.874,289.402 C512.872,293.244 515.411,299.152 518.073,305.336 L518.827,307.098 C521.005,312.223 523.642,318.812 526.429,325.789 C532.86,341.869 540.044,359.83 544.778,367.725 C543.313,367 542.136,366.207 541.851,365.578 M492.548,328.988 C488.933,324.541 462.353,319.992 451.548,319.773 C452.63,312.637 450.874,301.506 449.921,296.373 C462.485,300.264 475.437,304.101 488.593,303.738 C489.825,303.693 490.729,303.734 491.427,303.76 L491.493,303.762 C491.136,306.848 492.761,310.443 494.489,314.209 C497.31,320.357 500.194,326.695 495.337,331.867 C495.169,331.65 494.974,331.449 494.685,331.246 C494.493,331.113 493.981,330.756 492.548,328.988 M449.009,319.82 C432.019,316.654 384.124,324.271 381.235,325.117 C379.966,325.486 378.159,326.324 376.067,327.293 C373.483,328.494 369.577,330.305 368.167,330.305 C365.47,330.305 362.108,330.305 357.483,327.76 C353.251,325.432 338.042,321.924 331.808,320.543 C334.644,314.816 337.661,309.117 338.425,308.295 C339.718,307.107 352.685,294.902 356.356,291.443 C360.091,293.01 371.429,297.625 376.847,298.277 C382.39,298.941 393.521,297.25 412.942,292.791 C427.546,289.443 431.044,290.519 447.774,295.709 C448.63,300.162 450.769,312.598 449.556,319.791 C449.368,319.801 449.177,319.808 449.009,319.82 M248.076,375.543 C245.823,379.361 247.089,384.533 248.693,391.082 C249.827,395.703 251.109,400.939 251.521,406.902 C252.466,420.598 242.146,457.057 240.603,461.502 C232.423,461.305 223.009,457.924 219.269,456.445 C219.392,455.851 219.495,455.383 219.574,455.082 C220.674,450.99 221.337,407.256 220.767,404.396 L220.577,403.408 C219.853,399.621 217.931,389.568 214.956,382.473 C213.127,378.115 213.796,376.051 214.902,372.633 C215.518,370.726 216.217,368.566 216.582,365.654 C217.03,362.062 219.166,356.527 221.231,351.176 C223.062,346.43 224.815,341.887 225.576,338.332 C239.262,344.344 259.521,344.898 267.9,344.928 C262.936,352.467 250.678,371.146 248.076,375.543 M230.465,501.375 C230.465,501.56 230.525,501.707 230.553,501.877 C225.692,506.18 218.849,504.947 216.741,504.418 C213.316,503.566 211.708,502.217 211.607,501.885 C212.217,499.65 210.863,493.596 208.428,490.32 C208.796,490.123 209.174,489.896 209.566,489.621 C212.836,487.312 215.305,477.223 218.467,460.574 C218.614,459.799 218.749,459.082 218.877,458.42 C222.833,459.963 231.784,463.094 239.972,463.451 C237.728,471.041 230.465,499.172 230.465,501.375 M219.986,530.381 C214.106,531.359 210.008,532.764 206.397,534.002 C199.687,536.301 194.385,538.115 180.662,536.558 C172.647,535.646 166.203,532.818 161.748,528.394 C165.781,531.051 171.604,533.269 179.651,534.308 C183.23,534.767 186.458,534.965 189.377,534.965 C200.396,534.965 206.98,532.172 211.277,530.351 C212.847,529.685 214.087,529.158 215.001,529.019 C218.584,528.48 226.382,526.103 231.822,522.482 C232.094,524.973 232.289,528.33 219.986,530.381 M175.962,508.252 C176.588,508.094 177.466,507.871 178.474,507.609 C178.617,508.824 179.038,510.269 180.151,511.486 C181.603,513.078 183.835,513.879 186.807,513.879 C187.491,513.879 188.209,513.836 188.967,513.754 C200.191,512.506 207.397,508.068 211.95,504.65 C212.09,504.734 212.208,504.814 212.365,504.898 C214.345,505.949 217.805,506.994 221.553,506.994 C224.967,506.994 228.613,506.107 231.604,503.578 C232.09,503.92 232.692,504.185 233.496,504.314 C233.108,505.414 233.056,507.06 232.998,509.914 C232.928,513.205 232.837,517.266 231.907,519.994 C226.81,523.908 218.404,526.502 214.705,527.062 C213.544,527.238 212.202,527.807 210.501,528.525 C205.25,530.752 196.465,534.478 179.903,532.342 C162.741,530.129 157.047,522.572 156.389,518.457 C156.361,518.293 156.375,518.148 156.361,517.992 C156.654,517.182 157.313,516.232 158.75,515.549 C164.09,513.006 173.25,508.93 175.962,508.252 M194.22,502.281 C195.005,501.496 195.32,500.51 195.099,499.57 C198.891,499.965 200.627,498.633 201.42,497.363 C202.334,495.906 202.184,494.187 201.551,493.082 C201.572,492.519 201.925,491.373 202.29,490.488 C203.259,490.975 204.683,491.435 206.479,491.043 C208.763,493.601 210.149,499.701 209.695,501.361 C209.574,501.807 209.581,502.537 210.325,503.391 C205.94,506.615 199.147,510.627 188.748,511.783 C185.369,512.164 182.961,511.617 181.623,510.162 C180.763,509.228 180.479,508.045 180.405,507.101 C185.66,505.693 192.932,503.568 194.22,502.281 M162.769,181.639 C159.846,181.054 157.609,183 153.075,180.681 C152.768,180.525 152.448,180.346 152.122,180.148 C149.79,175.725 143.983,167.007 141.765,163.718 C145.497,161.988 149.167,160.027 152.528,157.643 L155.42,155.566 L156.847,154.53 L157.025,154.403 C157.197,154.281 157.358,154.17 157.606,153.965 C157.932,153.715 158.187,153.405 158.414,153.087 C159.261,151.763 159.315,150.378 159.309,149.131 C159.291,148.669 159.235,148.223 159.183,147.775 C159.089,146.998 158.967,146.231 158.802,145.482 C158.454,144 158.01,142.56 157.526,141.136 C157.952,141.317 158.408,141.455 158.915,141.518 C159.183,141.551 159.46,141.566 159.738,141.566 C160.53,141.566 161.326,141.42 162.069,141.215 C163.083,140.933 163.987,140.522 164.552,140.06 C164.981,139.71 165.557,138.871 166.176,137.821 C166.532,141.555 168.61,146.63 174.731,149.373 C172.22,158.726 166.75,182.434 162.769,181.639 M123.73,150.622 C123.485,150.317 123.141,150.047 122.808,149.921 C123.011,149.942 123.498,150.258 123.73,150.622 M122.348,128.188 C122.32,127.96 122.263,127.734 122.189,127.53 C121.904,126.951 121.802,126.912 121.646,126.679 L121.235,126.162 L120.443,125.218 L120.243,124.977 C121.193,125.913 122.614,127.119 123.803,127.317 C125.784,127.647 127.931,130.289 128.427,130.289 L134.206,130.289 C134.206,130.289 135.032,126.822 133.216,125.913 C131.398,125.006 129.417,122.53 128.096,122.365 C126.879,122.211 120.757,123.602 119.421,123.819 C119.544,123.552 119.64,123.306 119.737,123.059 C120.046,122.218 120.283,121.423 120.512,120.623 C120.969,119.028 121.359,117.444 121.719,115.853 C122.321,113.21 122.856,110.569 123.382,107.92 L129.398,110.302 C131.93,111.307 134.464,112.299 137.016,113.253 C142.116,115.172 147.185,117.161 152.328,118.979 L153.688,132.213 C154.573,134.689 155.406,137.193 156.095,139.717 L155.869,139.888 C155.978,140.035 156.112,140.155 156.241,140.284 C156.717,142.091 157.131,143.905 157.387,145.733 C157.532,146.871 157.611,148.012 157.549,149.108 C157.483,150.188 157.235,151.258 156.74,151.903 C156.609,152.053 156.482,152.195 156.325,152.29 C156.208,152.391 155.857,152.587 155.638,152.733 L154.138,153.681 L151.16,155.535 C147.199,157.945 143.043,159.922 138.693,161.579 C136.524,162.4 134.321,163.259 132.167,163.955 C131.11,164.288 129.989,164.609 129.176,164.653 C128.755,164.671 128.588,164.636 128.222,164.487 L126.65,163.757 L126.47,163.695 C126.565,163.721 126.261,163.575 126.148,163.46 C125.989,163.34 125.844,163.173 125.705,163.002 C125.428,162.651 125.219,162.2 125.063,161.698 C124.888,161.205 124.825,160.624 124.765,160.045 C124.748,159.686 124.775,159.307 124.79,158.936 C125.625,158.039 126.41,157.111 126.321,156.873 C126.136,156.376 124.773,155.202 124.773,154.211 C124.773,153.219 130.716,153.466 130.716,153.466 L124.322,152.072 C124.286,151.889 124.237,151.68 124.158,151.413 L124.051,151.14 L123.998,151.017 C124.022,150.231 124.171,149.082 124.315,148.083 L124.846,144.744 L124.906,144.372 L126.788,141.767 L122.918,142.325 L119.265,141.092 C119.988,138.574 120.707,136.061 121.371,133.505 C121.573,132.713 121.777,131.916 121.953,131.102 L122.208,129.839 C122.247,129.613 122.29,129.427 122.32,129.131 L122.366,128.723 C122.366,128.723 122.378,128.384 122.348,128.188 M156.825,139.17 C156.412,138.095 155.969,137.034 155.5,135.987 C155.583,135.618 155.726,134.985 155.908,134.215 C156.75,134.999 157.784,136.278 157.187,137.462 C158.777,137.474 159.88,134.251 159.88,133.591 C159.88,132.93 157.863,132.248 157.814,131.94 C157.764,131.633 158.43,128.556 158.43,128.556 C158.43,128.556 158.537,128.521 158.685,128.471 L161.738,131.404 C161.738,131.404 161.767,133.395 161.767,133.684 C161.767,133.974 159.849,136.471 159.88,137.462 C160.437,137.028 162.976,133.746 162.976,133.746 C162.976,133.746 163.264,131.28 163.141,130.992 C163.041,130.756 162.01,128.354 161.622,127.44 C162.142,127.25 162.582,127.079 162.769,126.987 C163.43,126.657 165.236,129.784 165.236,129.784 C165.236,129.784 164.927,127.071 163.721,125.296 C163.508,124.988 160.333,124.466 159.507,125.038 C158.705,125.596 157.797,127.326 157.82,127.205 C158.699,124.521 159.703,122.281 160.625,122.257 C162.852,122.2 165.577,122.694 166.319,124.678 C166.926,126.295 167.027,129.722 166.645,132.681 C165.248,135.514 163.83,138.092 163.301,138.525 C162.618,139.083 160.706,139.746 159.155,139.551 C158.378,139.457 157.808,139.17 157.453,138.698 L156.825,139.17 z M147.412,114.292 C153.026,116.085 158.604,118.01 164.05,120.273 C166.772,121.405 169.462,122.624 172.046,124.049 C174.596,125.482 177.203,127.064 178.953,129.464 C177.137,127.117 174.509,125.623 171.93,124.266 C169.321,122.922 166.607,121.783 163.867,120.733 C158.379,118.632 152.768,116.871 147.126,115.239 C145.39,114.741 143.645,114.279 141.904,113.806 C140.492,113.12 139.078,112.435 137.668,111.742 C137.013,111.42 136.351,111.115 135.694,110.797 C139.616,111.909 143.528,113.054 147.412,114.292 M79.81,180.657 C74.273,179.685 70.558,179.058 68.139,179.058 C67.479,179.058 66.915,179.103 66.436,179.204 C63.105,179.895 49.092,175.482 46.896,173.423 C45.071,171.714 39.494,165.102 36.076,160.972 L44.591,149.777 C48.256,150.387 59.348,152.24 61.626,152.741 C64.05,153.273 69.679,156.495 71.007,158.354 C73.782,162.238 85.559,161.957 88.577,161.825 C90.618,162.991 99.227,168.806 97.994,183.266 C91.734,182.753 85.176,181.603 79.81,180.657 M20.119,151.785 C19.279,149.766 20.838,146.776 21.51,145.793 L21.65,145.589 L21.676,145.343 C21.689,145.228 21.951,142.515 18.798,140.22 C17.688,139.413 16.324,139.153 14.964,139.153 C13.361,139.153 11.764,139.516 10.591,139.782 C10.078,139.898 9.495,140.032 9.299,140.032 C8.99,140.032 8.311,139.723 7.478,139.126 C8.848,137.495 11.071,135.35 12.917,135.066 C13.757,134.937 21.182,133.764 23.264,132.381 C24.471,131.577 25.193,129.306 25.569,127.684 C28.913,130.459 31.854,134.445 34.33,139.553 C34.364,142.031 27.925,148.822 23.155,153.028 C22.602,153.204 20.866,153.573 20.119,151.785 M2.233,141.318 C1.991,139.896 1.908,138.347 1.991,138.089 C2.593,137.489 5.513,134.403 4.035,132.63 C3.668,132.141 3.932,129.671 4.172,128.759 C4.342,128.616 4.72,128.366 4.982,128.191 C6.155,127.41 6.88,126.881 7.047,126.13 C7.248,125.221 7.779,122.441 7.033,121.164 C7.352,120.411 8.748,118.508 10.29,116.744 C10.698,116.353 13.053,116.618 15.242,117.284 C13.645,124.409 11.99,132.899 11.448,133.417 L11.527,133.409 C8.778,134.433 6.238,137.471 5.441,138.498 L3.412,139.444 L5.589,140.173 C6.48,140.904 8.039,142.011 9.299,142.011 C9.717,142.011 10.269,141.888 11.031,141.712 C12.647,141.345 15.225,140.763 16.969,141.465 C16.512,142.636 15.705,144.846 15.342,146.784 C15.319,146.91 15.133,147.039 15.024,147.102 C13.142,148.215 7.244,147.627 6.555,147.421 C6.024,147.028 3.923,143.982 2.233,141.318 M34.032,82.313 C36.536,82.925 39.069,83.238 41.6,83.277 C34.677,91.139 27.646,103.725 25.034,108.595 C23.96,108.311 22.675,108.062 21.486,107.874 C22.429,100.414 22.496,85.098 22.042,76.667 C25.579,79.258 29.591,81.226 34.032,82.313 M11.351,34.926 C12.865,35.529 14.39,36.106 15.916,36.674 L15.863,36.849 C15.488,38.193 15.123,39.539 14.773,40.891 C14.008,40.695 13.244,40.493 12.474,40.312 C13.211,40.619 13.956,40.904 14.699,41.197 C14.375,42.455 14.061,43.717 13.771,44.988 C13.147,47.721 12.613,50.48 12.225,53.281 C13.245,50.967 14.137,48.619 14.965,46.251 C15.997,46.683 17.034,47.109 18.073,47.52 L18.044,47.627 C17.845,48.497 17.353,50.454 17.052,51.781 C16.559,51.663 16.072,51.528 15.576,51.417 C16.047,51.628 16.526,51.814 17.001,52.017 C16.944,52.264 16.897,52.491 16.864,52.665 C16.507,54.352 16.161,56.042 15.868,57.748 C16.549,56.154 17.175,54.543 17.792,52.93 C17.845,52.79 17.909,52.621 17.979,52.431 C19.065,52.889 20.146,53.358 21.236,53.806 L21.394,53.872 C21.124,54.92 20.885,55.871 20.82,56.217 C20.703,56.733 20.599,57.254 20.481,57.771 C19.365,57.494 18.253,57.21 17.126,56.968 C18.19,57.474 19.267,57.937 20.342,58.407 C20.055,59.674 19.758,60.938 19.51,62.217 C20,61.038 20.444,59.846 20.899,58.658 C21.22,58.797 21.539,58.949 21.859,59.087 C22.445,59.356 23.594,59.811 24.663,60.234 C24.38,61.402 24.1,62.57 23.823,63.738 C22.124,63.29 20.412,62.87 18.677,62.521 C20.289,63.353 21.925,64.11 23.572,64.839 C23.432,65.453 23.282,66.067 23.152,66.684 C23.389,66.108 23.606,65.529 23.831,64.951 C24.667,65.319 25.501,65.691 26.346,66.038 C26.857,66.249 27.374,66.441 27.89,66.645 C27.509,68.142 27.134,69.641 26.795,71.152 C27.369,69.73 27.909,68.297 28.442,66.863 C29.725,67.365 31.012,67.854 32.306,68.327 C31.669,70.754 31.012,73.174 30.437,75.619 C31.365,73.298 32.211,70.951 33.079,68.611 C33.453,68.746 33.824,68.886 34.2,69.021 C35.47,69.457 36.743,69.887 38.02,70.302 C37.414,72.752 36.787,75.196 36.242,77.662 C37.147,75.306 37.966,72.925 38.809,70.552 C39.935,70.911 41.061,71.268 42.196,71.6 C42.384,71.657 42.574,71.701 42.763,71.755 C42.416,73.172 42.076,74.589 41.766,76.016 C42.305,74.653 42.811,73.28 43.311,71.906 C44.73,72.307 46.16,72.677 47.599,73.017 C47.496,73.468 47.388,73.917 47.291,74.37 C47.468,73.936 47.631,73.5 47.801,73.064 C48.659,73.266 49.513,73.477 50.379,73.652 C49.599,73.25 48.808,72.885 48.02,72.51 C48.527,71.203 49.026,69.896 49.519,68.586 C50.847,68.949 52.185,69.286 53.526,69.611 C53.286,70.647 53.031,71.678 52.815,72.723 C53.24,71.733 53.622,70.729 54.02,69.728 C54.757,69.905 55.49,70.098 56.234,70.26 C55.553,69.938 54.861,69.65 54.176,69.341 C54.481,68.567 54.803,67.798 55.107,67.023 C55.222,66.758 55.472,66.081 55.761,65.288 C56.972,65.612 58.195,65.905 59.414,66.205 C59.035,67.821 58.66,69.441 58.339,71.077 C59.039,69.539 59.685,67.987 60.323,66.431 C60.914,66.573 61.495,66.734 62.089,66.869 C61.54,66.625 60.984,66.408 60.432,66.171 C60.837,65.212 61.588,63.17 62.04,61.977 C63.142,62.271 64.252,62.545 65.359,62.822 C64.794,65.002 64.273,67.198 63.864,69.429 C64.885,67.367 65.792,65.267 66.652,63.15 C67.083,63.255 67.511,63.377 67.944,63.477 C67.539,63.306 67.127,63.153 66.72,62.985 C66.893,62.556 67.08,62.132 67.248,61.702 C67.64,60.701 68.007,59.693 68.376,58.683 C69.757,59.051 71.14,59.415 72.529,59.757 C69.59,65.301 65.456,70.034 60.364,73.508 C52.596,78.808 43.578,80.568 34.974,78.465 C17.307,74.143 6.821,54.694 11.351,34.926 M17.499,31.496 C17.01,33.022 16.54,34.553 16.09,36.09 C14.52,35.668 12.944,35.258 11.36,34.872 C11.404,34.689 11.423,34.507 11.47,34.324 C11.854,32.754 12.351,31.239 12.9,29.75 C14.432,30.335 15.96,30.931 17.499,31.496 M15.019,24.96 C16.397,25.523 17.784,26.062 19.172,26.6 C18.901,27.342 18.62,28.082 18.365,28.829 C18.171,29.396 17.995,29.968 17.809,30.538 C16.244,30.093 14.668,29.679 13.093,29.253 C13.66,27.776 14.297,26.342 15.019,24.96 M27.302,10.972 C32.93,7.13 39.212,5.15 45.521,5.15 C47.919,5.15 50.323,5.434 52.692,6.015 C70.501,10.369 81.031,30.096 76.221,50.027 C74.752,49.433 73.276,48.863 71.795,48.303 C72.044,47.455 72.301,46.61 72.536,45.757 C72.688,45.205 72.817,44.646 72.96,44.093 C73.722,44.29 74.481,44.495 75.247,44.68 C74.514,44.371 73.774,44.085 73.038,43.789 C73.566,41.727 74.057,39.65 74.445,37.54 C74.189,38.062 73.961,38.591 73.715,39.115 C72.373,38.531 71.022,37.98 69.668,37.435 C70.017,36.02 70.335,34.593 70.638,33.163 C71.162,33.292 71.679,33.438 72.205,33.558 C71.706,33.332 71.197,33.131 70.694,32.911 C70.777,32.52 70.875,32.136 70.954,31.745 C70.792,32.102 70.651,32.466 70.493,32.824 C69.184,32.257 67.873,31.688 66.558,31.138 C66.501,31.11 66.389,31.066 66.294,31.026 C66.607,29.736 66.903,28.442 67.187,27.141 C68.35,27.437 69.509,27.739 70.686,27.999 C69.579,27.466 68.458,26.975 67.339,26.479 C67.376,26.302 67.424,26.127 67.461,25.949 C67.392,26.114 67.332,26.28 67.263,26.445 C66.829,26.251 66.398,26.043 65.964,25.854 C65.334,25.562 64.054,25.046 62.923,24.593 C63.201,23.435 63.483,22.277 63.743,21.113 C65.533,21.602 67.335,22.059 69.165,22.438 C66.66,21.128 64.104,19.958 61.517,18.878 C60.873,18.61 60.224,18.361 59.578,18.104 C59.877,16.855 60.197,15.614 60.476,14.358 C60.017,15.545 59.598,16.745 59.158,17.936 C57.803,17.401 56.444,16.879 55.079,16.375 C55.742,13.779 56.389,11.18 56.985,8.563 C56.048,11.057 55.163,13.569 54.292,16.082 C54.087,16.006 53.883,15.928 53.678,15.853 C52.495,15.437 51.306,15.034 50.115,14.636 C50.815,12.037 51.503,9.435 52.138,6.817 C51.156,9.321 50.227,11.844 49.311,14.372 C48.111,13.978 46.908,13.593 45.696,13.228 C45.512,13.174 45.324,13.128 45.139,13.074 C45.421,11.931 45.727,10.794 45.992,9.644 C45.554,10.745 45.157,11.855 44.737,12.962 C42.362,12.271 39.966,11.64 37.525,11.133 C39.727,12.285 41.972,13.312 44.24,14.279 C43.832,15.373 43.406,16.462 43.01,17.56 C42.562,17.423 42.116,17.275 41.666,17.14 C40.757,16.869 39.84,16.623 38.927,16.365 C39.237,15.069 39.562,13.778 39.846,12.473 C39.344,13.714 38.885,14.968 38.412,16.218 C36.175,15.596 33.929,15 31.652,14.493 C32.317,14.811 32.99,15.098 33.66,15.402 C33.106,16.747 32.593,18.106 32.079,19.462 C30.568,19.048 29.044,18.669 27.519,18.294 L27.552,18.132 L27.491,18.287 C26.917,18.146 26.353,17.986 25.778,17.851 C26.311,18.092 26.855,18.306 27.391,18.54 C26.808,19.926 26.252,21.321 25.724,22.723 C24.256,22.325 22.783,21.943 21.305,21.575 C21.335,21.37 21.376,21.166 21.407,20.96 C21.322,21.152 21.25,21.347 21.167,21.538 C20.746,21.434 20.328,21.312 19.904,21.211 C20.302,21.381 20.704,21.533 21.101,21.701 C20.494,23.118 19.927,24.549 19.393,25.988 C17.956,25.599 16.521,25.211 15.075,24.845 C18.018,19.248 22.173,14.47 27.302,10.972 M70.29,53.177 C70.75,51.754 71.194,50.323 71.624,48.889 C73.146,49.306 74.674,49.711 76.208,50.094 L76.196,50.155 C75.804,51.761 75.29,53.31 74.725,54.833 C73.247,54.279 71.773,53.713 70.29,53.177 M64.045,56.354 C64.449,55.168 64.84,53.977 65.232,52.786 C66.181,53.058 67.131,53.327 68.081,53.596 C67.671,54.86 67.268,56.127 66.882,57.398 C65.939,57.044 64.991,56.7 64.045,56.354 M57.815,59.506 C58.21,58.367 58.605,57.226 58.987,56.081 C59.966,56.365 60.949,56.637 61.93,56.915 C61.562,58.155 61.203,59.394 60.86,60.64 C59.849,60.253 58.83,59.884 57.815,59.506 M57.213,61.265 C57.279,61.076 57.34,60.887 57.406,60.699 C58.468,60.998 59.529,61.306 60.595,61.598 C60.27,62.806 59.758,64.762 59.513,65.784 C58.376,65.304 57.242,64.815 56.095,64.358 C56.566,63.046 57.051,61.678 57.213,61.265 M51.633,62.636 C51.914,61.828 52.133,61.202 52.194,61.046 C52.388,60.486 52.566,59.921 52.756,59.359 C53.247,59.504 53.731,59.659 54.223,59.8 C54.776,59.962 55.335,60.111 55.89,60.271 C55.843,60.447 55.79,60.618 55.74,60.795 C55.627,61.216 55.263,62.575 54.915,63.902 C53.823,63.474 52.73,63.05 51.633,62.636 M51.162,63.998 C52.315,64.332 53.473,64.653 54.634,64.972 C54.425,65.771 54.25,66.455 54.186,66.732 C53.998,67.52 53.829,68.314 53.642,69.104 C52.41,68.556 51.171,68.02 49.926,67.51 C50.146,66.922 50.668,65.419 51.162,63.998 M46.709,66.207 C46.307,66.051 45.901,65.907 45.497,65.754 C45.851,64.715 46.242,63.561 46.559,62.626 C47.675,62.969 48.791,63.316 49.912,63.643 C49.545,65.028 49.161,66.481 48.993,67.133 C48.232,66.825 47.474,66.505 46.709,66.207 M44.568,68.451 C44.595,68.39 44.752,67.937 44.974,67.291 C45.386,67.414 45.792,67.547 46.205,67.667 C47.031,67.908 47.865,68.128 48.694,68.358 C48.371,69.694 48.054,71.035 47.745,72.374 C46.436,71.755 45.116,71.163 43.786,70.603 C44.047,69.885 44.304,69.167 44.568,68.451 M40.399,65.873 C41.58,66.253 42.767,66.617 43.954,66.978 C43.779,67.64 43.657,68.103 43.641,68.168 C43.469,68.883 43.293,69.598 43.117,70.313 C42.98,70.256 42.847,70.195 42.711,70.137 C41.616,69.687 40.513,69.262 39.408,68.839 L40.399,65.873 z M34.728,63.977 C35.272,64.166 35.814,64.363 36.357,64.55 C37.328,64.874 38.3,65.188 39.274,65.505 L38.478,68.482 C37.274,68.029 36.068,67.585 34.856,67.152 C34.488,67.026 34.117,66.905 33.749,66.781 L34.728,63.977 z M25.507,60.567 C25.964,60.749 26.372,60.91 26.651,61.024 C27.463,61.342 28.285,61.636 29.1,61.943 C28.891,62.705 28.745,63.248 28.732,63.322 C28.59,63.887 28.445,64.452 28.302,65.016 C27.82,64.868 27.343,64.71 26.86,64.569 C25.998,64.317 25.128,64.09 24.26,63.858 C24.679,62.762 25.093,61.665 25.507,60.567 M21.748,56.488 C21.87,56.171 22.182,55.3 22.527,54.324 C23.549,54.718 24.904,55.225 25.876,55.594 C25.553,56.787 25.201,58.099 24.981,58.939 C23.906,58.638 22.773,58.325 22.169,58.173 C21.841,58.091 21.51,58.02 21.182,57.937 C21.365,57.452 21.563,56.973 21.748,56.488 M19.265,42.966 C18.907,44.276 18.564,45.591 18.231,46.909 C17.164,46.633 16.092,46.366 15.017,46.108 C15.098,45.876 15.189,45.647 15.269,45.413 C15.669,44.24 16.047,43.058 16.417,41.874 C17.366,42.24 18.316,42.602 19.265,42.966 M22.14,33.17 C21.7,34.57 21.271,35.974 20.848,37.378 L19.662,37.04 C19.102,36.895 18.543,36.742 17.982,36.593 C18.394,35.099 18.785,33.599 19.162,32.095 C20.154,32.456 21.147,32.814 22.14,33.17 M23.72,28.338 C23.314,29.527 22.925,30.719 22.544,31.914 C21.505,31.609 20.466,31.307 19.427,31.009 C19.569,30.422 19.722,29.84 19.856,29.253 C20.022,28.523 20.164,27.786 20.317,27.053 C21.45,27.487 22.583,27.915 23.72,28.338 M24.081,27.285 C22.883,26.941 21.682,26.605 20.48,26.276 C20.779,24.784 21.046,23.283 21.273,21.769 C22.659,22.353 24.049,22.924 25.446,23.476 C24.975,24.741 24.523,26.011 24.081,27.285 M29.979,25.225 C29.793,25.756 29.598,26.282 29.415,26.812 C29.204,27.423 29.01,28.038 28.805,28.651 C27.706,28.327 26.604,28.014 25.503,27.697 C25.814,26.423 26.113,25.146 26.399,23.866 C27.588,24.331 28.785,24.774 29.979,25.225 M30.399,24.04 C29.134,23.674 27.872,23.302 26.603,22.952 C26.916,21.498 27.203,20.039 27.465,18.572 C28.88,19.19 30.294,19.803 31.722,20.381 C31.268,21.596 30.832,22.817 30.399,24.04 M36.231,22.151 C35.845,23.239 35.454,24.324 35.077,25.414 C34.585,25.266 34.099,25.108 33.605,24.963 C32.941,24.765 32.272,24.581 31.607,24.388 C31.916,23.159 32.227,21.929 32.516,20.693 C33.751,21.188 34.988,21.674 36.231,22.151 M41.374,22.207 C40.172,21.831 38.973,21.449 37.764,21.092 C38.066,19.919 38.355,18.743 38.643,17.564 C39.48,17.91 40.313,18.266 41.154,18.597 C41.589,18.77 42.031,18.929 42.469,19.098 C42.101,20.133 41.736,21.169 41.374,22.207 M47.032,20.813 C46.698,21.772 46.355,22.73 46.024,23.691 C44.898,23.322 43.773,22.956 42.644,22.598 C42.93,21.563 43.215,20.527 43.493,19.49 C44.672,19.938 45.848,20.384 47.032,20.813 M47.657,19.033 C46.423,18.625 45.183,18.237 43.942,17.851 C44.236,16.743 44.499,15.626 44.78,14.516 C44.913,14.572 45.041,14.635 45.174,14.689 C46.339,15.175 47.511,15.639 48.686,16.094 C48.337,17.072 47.999,18.052 47.657,19.033 M52.706,20.745 C52.302,20.601 51.901,20.452 51.495,20.31 C50.597,20.005 49.695,19.71 48.795,19.41 C49.072,18.424 49.354,17.441 49.625,16.453 C50.752,16.884 51.879,17.306 53.012,17.718 C53.222,17.792 53.436,17.861 53.646,17.936 C53.328,18.87 53.019,19.809 52.706,20.745 M57.494,22.485 C56.275,22.031 55.054,21.585 53.831,21.147 C54.087,20.186 54.349,19.224 54.598,18.261 C55.911,18.714 57.23,19.149 58.553,19.574 C58.202,20.544 57.834,21.512 57.494,22.485 M61.183,23.891 C60.269,23.527 59.344,23.187 58.422,22.839 C58.686,21.82 58.924,20.794 59.176,19.77 C59.783,19.962 60.385,20.162 60.992,20.345 C61.861,20.604 62.74,20.838 63.615,21.078 C63.183,22.17 62.771,23.268 62.357,24.367 C61.887,24.179 61.468,24.01 61.183,23.891 M61.762,29.26 C62.05,28.149 62.333,27.035 62.609,25.919 C63.749,26.245 65.003,26.6 65.649,26.766 C66.098,26.884 66.552,26.983 67.001,27.098 C66.503,28.301 66.018,29.51 65.549,30.723 C64.451,30.289 62.823,29.671 61.762,29.26 M67.153,36.422 C66.969,36.337 66.135,36.021 65.117,35.639 C65.437,34.428 65.765,33.22 66.067,32.005 L66.247,32.054 C67.62,32.413 68.998,32.754 70.378,33.097 C69.804,34.41 69.244,35.726 68.715,37.051 C68.193,36.842 67.673,36.633 67.153,36.422 M68.482,41.993 L68.534,41.817 C68.875,40.566 69.193,39.307 69.511,38.047 C70.906,38.42 72.305,38.784 73.714,39.117 C73.065,40.506 72.449,41.906 71.868,43.318 C70.74,42.875 69.612,42.434 68.482,41.993 M62.701,50.488 C62.134,50.289 61.562,50.104 60.994,49.908 C61.022,49.818 61.052,49.727 61.081,49.637 C61.435,48.489 61.778,47.338 62.124,46.188 L65.058,47.044 C64.627,48.317 64.2,49.593 63.783,50.872 C63.422,50.746 63.062,50.614 62.701,50.488 M48.68,56.222 C48.998,55.241 49.329,54.264 49.639,53.284 C50.604,53.583 51.573,53.869 52.539,54.163 C52.238,55.198 51.954,56.238 51.662,57.273 C50.667,56.923 49.676,56.564 48.68,56.222 M42.555,59.372 C42.868,58.417 43.169,57.459 43.477,56.501 C44.494,56.826 45.51,57.152 46.529,57.472 C46.258,58.44 45.973,59.407 45.711,60.378 L45.691,60.461 C44.647,60.093 43.601,59.732 42.555,59.372 M36.349,59.339 C37.071,59.585 37.792,59.836 38.516,60.079 C39.19,60.302 39.87,60.515 40.547,60.735 L39.767,63.653 C38.847,63.327 37.927,62.998 37.003,62.678 C36.459,62.496 35.913,62.323 35.368,62.142 L36.349,59.339 z M31.72,57.735 C32.794,58.115 33.87,58.489 34.947,58.858 L34.136,61.738 C32.994,61.365 31.848,61.001 30.702,60.643 C31.046,59.656 31.418,58.598 31.72,57.735 M27.113,56.068 C28.203,56.477 29.301,56.863 30.396,57.256 C30.149,58.149 29.841,59.259 29.557,60.293 C28.756,60.048 27.96,59.793 27.155,59.559 C26.872,59.475 26.463,59.357 25.998,59.226 C26.283,58.429 26.714,57.202 27.113,56.068 M23.797,50.706 C23.899,50.414 23.989,50.118 24.089,49.826 C25.422,50.313 26.714,50.786 27.143,50.952 C26.962,51.604 26.767,52.254 26.589,52.908 C26.558,53.051 26.427,53.544 26.249,54.203 C25.261,53.921 23.928,53.545 22.904,53.26 C23.301,52.134 23.673,51.067 23.797,50.706 M23.856,44.646 C23.525,45.813 23.212,46.987 22.894,48.158 C21.905,47.879 21.103,47.653 20.915,47.608 C20.536,47.508 20.158,47.411 19.78,47.312 C20.195,46.082 20.601,44.851 20.994,43.617 C21.739,43.887 22.795,44.266 23.856,44.646 M25.202,40.027 C24.866,41.16 24.532,42.296 24.206,43.434 C23.132,43.127 22.066,42.824 21.311,42.611 C21.685,41.422 22.048,40.231 22.407,39.039 L25.202,40.027 z M31.455,36.44 C31.156,37.391 30.849,38.34 30.551,39.291 C30.469,39.562 30.389,39.834 30.308,40.105 C29.649,39.913 28.997,39.707 28.338,39.518 L27.481,39.273 L27.554,39.041 C27.908,37.846 28.253,36.647 28.602,35.45 C29.553,35.782 30.502,36.116 31.455,36.44 M32.976,31.686 C32.645,32.705 32.317,33.725 31.993,34.745 C31.019,34.444 30.044,34.152 29.067,33.856 C29.375,32.782 29.666,31.703 29.964,30.627 C30.965,30.989 31.971,31.334 32.976,31.686 M33.513,30.075 C32.468,29.756 31.425,29.429 30.377,29.119 C30.545,28.495 30.726,27.875 30.888,27.249 C31.022,26.741 31.143,26.226 31.273,25.715 C31.888,25.945 32.5,26.185 33.115,26.413 C33.595,26.591 34.081,26.756 34.562,26.932 C34.204,27.978 33.86,29.028 33.513,30.075 M37.623,33.309 C37.309,34.275 37.003,35.243 36.693,36.21 C35.733,35.906 34.773,35.599 33.811,35.298 C34.11,34.298 34.406,33.296 34.698,32.293 C35.672,32.631 36.645,32.977 37.623,33.309 M39.189,28.595 C38.862,29.571 38.528,30.544 38.207,31.523 C37.2,31.203 36.189,30.898 35.18,30.585 C35.477,29.548 35.774,28.51 36.059,27.47 C37.102,27.846 38.144,28.227 39.189,28.595 M40.465,24.797 C40.227,25.48 40.008,26.17 39.774,26.855 C38.687,26.512 37.597,26.185 36.507,25.853 C36.803,24.77 37.082,23.679 37.369,22.591 C38.507,23.025 39.652,23.436 40.796,23.853 C40.687,24.169 40.572,24.481 40.465,24.797 M44.449,28.36 C43.404,28.019 42.361,27.678 41.313,27.344 C41.513,26.644 41.726,25.948 41.92,25.247 C42.002,24.95 42.082,24.654 42.164,24.358 C43.244,24.745 44.328,25.126 45.411,25.504 C45.086,26.453 44.769,27.407 44.449,28.36 M46.499,31.103 C47.346,31.381 48.198,31.652 49.044,31.929 C48.746,32.872 48.439,33.814 48.145,34.758 C47.078,34.401 46.016,34.04 44.95,33.684 L44.674,33.597 C44.961,32.656 45.235,31.709 45.517,30.768 C45.844,30.878 46.171,30.992 46.499,31.103 M48.669,26.641 C49.294,26.849 49.922,27.05 50.546,27.258 C50.237,28.198 49.94,29.141 49.638,30.083 C48.802,29.799 47.968,29.51 47.131,29.227 C46.778,29.111 46.424,28.999 46.07,28.883 C46.352,27.933 46.637,26.983 46.912,26.028 C47.498,26.232 48.083,26.439 48.669,26.641 M51.144,25.407 C50.534,25.197 49.925,24.979 49.314,24.77 C48.696,24.565 48.077,24.365 47.46,24.161 C47.736,23.196 48.001,22.226 48.274,21.259 C49.13,21.566 49.983,21.879 50.84,22.18 C51.254,22.322 51.671,22.454 52.086,22.595 C51.775,23.533 51.454,24.469 51.144,25.407 M55.916,27.085 C54.802,26.686 53.684,26.293 52.566,25.904 C52.829,24.941 53.076,23.975 53.336,23.014 C54.524,23.41 55.717,23.799 56.912,24.181 C56.576,25.148 56.244,26.117 55.916,27.085 M60.705,28.849 C59.532,28.401 58.354,27.978 57.175,27.55 C57.447,26.539 57.714,25.526 57.979,24.514 C58.875,24.796 59.768,25.086 60.669,25.353 C60.958,25.439 61.375,25.562 61.848,25.7 C61.46,26.747 61.078,27.796 60.705,28.849 M60.534,33.921 C60.829,32.84 61.104,31.753 61.391,30.667 C62.467,30.981 64.042,31.437 65.14,31.746 C64.709,32.886 64.3,34.034 63.885,35.178 C62.359,34.609 60.826,34.041 60.534,33.921 M67.065,41.34 L67.03,41.436 C66.286,41.16 65.064,40.714 63.852,40.27 C64.077,39.472 64.315,38.678 64.531,37.877 C64.631,37.507 64.723,37.135 64.822,36.764 C65.831,37.056 66.655,37.29 66.844,37.34 C67.376,37.479 67.909,37.621 68.441,37.764 C67.974,38.953 67.508,40.142 67.065,41.34 M59.85,43.938 C59.189,43.702 58.523,43.482 57.862,43.249 C58.174,42.199 58.485,41.152 58.79,40.1 C59.095,40.19 59.397,40.289 59.701,40.378 C59.792,40.406 60.689,40.667 61.836,41.001 C61.468,42.087 61.097,43.17 60.742,44.258 L59.85,43.938 z M51.102,48.58 C52.049,48.874 52.993,49.171 53.939,49.461 C53.638,50.459 53.338,51.458 53.042,52.459 C52.093,52.137 51.149,51.807 50.198,51.491 C50.502,50.52 50.803,49.551 51.102,48.58 M45.55,49.953 C45.843,49.009 46.131,48.065 46.42,47.118 C47.365,47.415 48.311,47.708 49.255,48.005 C48.97,48.968 48.683,49.931 48.399,50.895 C47.451,50.581 46.501,50.266 45.55,49.953 M41.296,53.732 C40.379,53.437 39.457,53.148 38.538,52.854 C38.853,51.914 39.179,50.978 39.487,50.038 C40.601,50.404 41.715,50.777 42.83,51.142 C42.95,51.179 43.07,51.216 43.191,51.255 C42.919,52.201 42.662,53.153 42.394,54.1 C42.027,53.978 41.663,53.854 41.296,53.732 M33.873,51.383 C34.194,50.421 34.527,49.464 34.84,48.498 C35.795,48.82 36.752,49.136 37.71,49.451 C37.42,50.405 37.148,51.365 36.863,52.321 C35.868,52.008 34.873,51.692 33.873,51.383 M28.061,53.353 C28.275,52.737 28.471,52.115 28.68,51.497 C29.694,51.861 30.708,52.218 31.723,52.571 C31.438,53.564 31.138,54.553 30.863,55.55 L30.855,55.581 C29.78,55.251 28.708,54.915 27.627,54.602 C27.849,53.965 28.016,53.489 28.061,53.353 M27.568,45.983 C27.865,46.09 28.163,46.187 28.46,46.292 C28.148,47.352 27.859,48.42 27.559,49.483 C27.057,49.341 25.792,48.979 24.492,48.609 C24.865,47.498 25.241,46.388 25.6,45.272 C26.665,45.654 27.483,45.949 27.568,45.983 M28.906,44.786 C28.617,44.703 28.331,44.612 28.042,44.528 C27.954,44.503 27.113,44.263 26.02,43.95 C26.366,42.861 26.705,41.768 27.042,40.676 L27.873,40.97 C28.53,41.201 29.19,41.414 29.847,41.642 C29.532,42.69 29.216,43.738 28.906,44.786 M33.078,47.89 C32.781,48.884 32.503,49.887 32.211,50.882 C31.206,50.576 30.2,50.271 29.189,49.973 C29.531,48.947 29.883,47.927 30.216,46.899 C31.169,47.232 32.122,47.563 33.078,47.89 M34.498,43.224 C34.196,44.213 33.894,45.202 33.594,46.19 C32.636,45.899 31.677,45.614 30.717,45.328 C31.042,44.309 31.365,43.289 31.686,42.268 C32.623,42.588 33.558,42.91 34.498,43.224 M35.447,40.105 C35.304,40.574 35.163,41.043 35.02,41.51 C34.08,41.225 33.135,40.948 32.192,40.667 C32.277,40.399 32.362,40.133 32.445,39.865 C32.728,38.936 33.002,38.004 33.281,37.073 C34.226,37.393 35.17,37.705 36.115,38.018 C35.894,38.716 35.667,39.409 35.447,40.105 M39.155,44.771 C38.859,45.723 38.564,46.676 38.271,47.63 C37.317,47.33 36.362,47.028 35.406,46.733 C35.718,45.773 36.023,44.811 36.33,43.849 C37.27,44.159 38.213,44.463 39.155,44.771 M40.778,39.568 C40.635,40.019 40.488,40.469 40.343,40.92 C40.132,41.596 39.927,42.274 39.717,42.951 C38.776,42.657 37.839,42.36 36.897,42.071 C37.044,41.611 37.192,41.15 37.339,40.69 C37.549,40.005 37.756,39.319 37.965,38.634 C38.902,38.944 39.84,39.26 40.778,39.568 M42.291,34.88 C41.987,35.82 41.684,36.76 41.381,37.702 C40.431,37.397 39.477,37.096 38.526,36.793 C38.818,35.831 39.114,34.871 39.403,33.908 C40.364,34.232 41.328,34.557 42.291,34.88 M42.889,33.024 C41.908,32.706 40.926,32.394 39.944,32.081 C40.234,31.107 40.508,30.128 40.792,29.153 C41.804,29.502 42.818,29.847 43.833,30.191 C43.519,31.138 43.196,32.078 42.889,33.024 M52.287,38.115 C51.982,39.077 51.686,40.041 51.387,41.004 C50.439,40.686 49.49,40.375 48.54,40.06 C48.822,39.102 49.103,38.145 49.382,37.188 C50.352,37.497 51.317,37.809 52.287,38.115 M59.096,33.405 C58.031,33.015 56.963,32.632 55.895,32.255 C56.102,31.501 56.326,30.752 56.528,29.997 C56.596,29.745 56.659,29.493 56.727,29.243 C57.879,29.603 59.028,29.97 60.187,30.312 C59.824,31.344 59.452,32.37 59.096,33.405 M54.577,36.952 C54.865,35.956 55.136,34.954 55.417,33.955 C56.472,34.285 57.526,34.61 58.586,34.929 C58.237,35.952 57.898,36.977 57.56,38.003 C56.566,37.649 55.573,37.298 54.577,36.952 M47.561,43.398 C47.71,42.895 47.856,42.392 48.003,41.889 C48.947,42.188 49.887,42.492 50.831,42.787 C50.614,43.491 50.392,44.193 50.175,44.897 C50.049,45.317 49.928,45.739 49.802,46.159 C48.867,45.855 47.932,45.546 46.995,45.243 C47.183,44.628 47.374,44.013 47.561,43.398 M41.581,43.533 C41.797,42.861 42.017,42.188 42.232,41.516 C42.37,41.072 42.504,40.626 42.644,40.181 C43.808,40.556 44.973,40.923 46.136,41.294 C45.98,41.805 45.821,42.317 45.665,42.829 C45.487,43.432 45.311,44.037 45.133,44.642 C43.951,44.269 42.765,43.904 41.581,43.533 M43.443,49.259 C42.322,48.902 41.2,48.553 40.079,48.199 C40.384,47.256 40.687,46.311 40.991,45.369 C42.186,45.757 43.38,46.151 44.577,46.537 C44.299,47.477 44.022,48.419 43.749,49.359 C43.646,49.326 43.545,49.291 43.443,49.259 M54.686,46.967 C54.613,47.206 54.542,47.445 54.471,47.685 C53.537,47.377 52.602,47.073 51.667,46.767 C51.799,46.337 51.937,45.908 52.068,45.477 C52.279,44.771 52.484,44.063 52.695,43.355 C53.646,43.65 54.6,43.935 55.553,44.223 C55.265,45.139 54.971,46.051 54.686,46.967 M56.06,42.624 C55.107,42.294 54.158,41.958 53.204,41.635 C53.498,40.644 53.793,39.654 54.084,38.662 C55.067,38.969 56.053,39.267 57.04,39.565 C56.708,40.584 56.384,41.603 56.06,42.624 M63.068,37.41 C62.797,38.17 62.546,38.934 62.284,39.699 C61.154,39.286 60.271,38.962 60.182,38.926 C59.863,38.81 59.539,38.702 59.218,38.586 C59.523,37.526 59.824,36.462 60.118,35.399 C60.538,35.522 61.989,35.945 63.449,36.368 C63.324,36.716 63.191,37.061 63.068,37.41 M52.053,27.752 C53.141,28.109 54.231,28.461 55.325,28.81 C55.242,29.056 55.155,29.303 55.071,29.551 C54.828,30.266 54.604,30.989 54.366,31.706 C53.329,31.344 52.288,30.989 51.248,30.632 C51.517,29.673 51.789,28.714 52.053,27.752 M50.733,32.476 C51.753,32.805 52.772,33.136 53.793,33.458 C53.48,34.421 53.158,35.38 52.85,36.345 C51.875,36.011 50.896,35.685 49.92,35.355 C50.198,34.397 50.461,33.435 50.733,32.476 M44.326,35.563 C45.408,35.916 46.494,36.259 47.575,36.607 C47.283,37.555 46.992,38.502 46.703,39.449 C45.544,39.065 44.385,38.676 43.225,38.296 C43.516,37.358 43.805,36.422 44.091,35.485 L44.326,35.563 M32.318,56.023 L32.325,56.001 C32.658,55.045 32.966,54.081 33.29,53.124 C34.3,53.471 35.312,53.812 36.324,54.153 C36.044,55.109 35.755,56.064 35.48,57.023 C34.427,56.686 33.373,56.351 32.318,56.023 M41.064,58.861 C40.424,58.643 39.788,58.422 39.149,58.205 C38.425,57.968 37.698,57.74 36.975,57.504 C37.297,56.569 37.607,55.626 37.922,54.689 C38.839,54.994 39.755,55.306 40.673,55.611 C41.07,55.739 41.468,55.862 41.865,55.989 C41.599,56.947 41.325,57.902 41.064,58.861 M47.037,55.658 C46.049,55.323 45.057,54.993 44.066,54.662 C44.368,53.712 44.683,52.767 44.978,51.817 C45.938,52.121 46.898,52.422 47.86,52.724 C47.577,53.699 47.313,54.681 47.037,55.658 M57.671,54.062 C56.725,53.726 55.777,53.405 54.829,53.078 C55.156,52.058 55.478,51.035 55.798,50.014 C56.744,50.302 57.693,50.58 58.642,50.863 C58.315,51.927 57.99,52.993 57.671,54.062 M59.195,49.035 L59.124,49.27 C58.195,48.953 57.266,48.632 56.333,48.32 C56.413,48.066 56.495,47.812 56.575,47.557 C56.854,46.636 57.125,45.71 57.403,44.785 C58.061,44.983 58.718,45.194 59.378,45.387 L60.29,45.652 C59.924,46.781 59.555,47.907 59.195,49.035 M65.431,45.944 L62.516,44.897 C62.856,43.764 63.18,42.625 63.506,41.488 C64.716,41.84 65.93,42.191 66.685,42.41 C66.258,43.586 65.835,44.761 65.431,45.944 M28.344,30.042 C27.984,31.132 27.619,32.218 27.271,33.31 C26.695,33.139 26.122,32.955 25.544,32.785 C25.124,32.661 24.703,32.542 24.282,32.419 C24.6,31.244 24.91,30.067 25.206,28.888 C26.252,29.272 27.296,29.664 28.344,30.042 M23.907,33.806 C24.297,33.945 24.684,34.09 25.075,34.228 C25.648,34.432 26.225,34.623 26.797,34.826 C26.415,36.042 26.03,37.259 25.655,38.477 L25.582,38.731 L22.744,37.92 C23.14,36.551 23.528,35.181 23.907,33.806 M44.389,65.338 C43.259,64.915 42.13,64.492 40.997,64.085 L41.964,61.19 C43.047,61.537 44.133,61.883 45.22,62.221 C44.971,63.153 44.666,64.298 44.389,65.338 M50.727,60.586 C50.684,60.744 50.521,61.35 50.312,62.135 C49.252,61.74 48.186,61.361 47.121,60.98 L47.176,60.827 C47.498,59.874 47.797,58.916 48.111,57.963 C49.139,58.281 50.174,58.583 51.204,58.893 C51.048,59.457 50.879,60.019 50.727,60.586 M56.271,58.932 C55.748,58.74 55.227,58.539 54.705,58.348 C54.226,58.173 53.743,58.012 53.262,57.839 C53.612,56.79 53.971,55.745 54.312,54.695 C55.284,54.986 56.253,55.285 57.227,55.566 C56.899,56.686 56.585,57.808 56.271,58.932 M62.281,55.714 C61.336,55.374 60.395,55.026 59.449,54.689 C59.805,53.6 60.156,52.51 60.506,51.417 C61.085,51.586 61.661,51.768 62.241,51.934 C62.61,52.04 62.982,52.144 63.351,52.25 C62.99,53.404 62.629,54.557 62.281,55.714 M68.441,52.522 C67.509,52.191 66.578,51.86 65.645,51.532 C66.061,50.215 66.466,48.893 66.866,47.57 L68.04,47.913 C68.658,48.078 69.272,48.248 69.887,48.416 C69.392,49.78 68.908,51.149 68.441,52.522 M71.064,45.268 C70.751,46.07 70.459,46.876 70.162,47.682 C69.555,47.451 68.947,47.225 68.339,46.99 L67.169,46.57 C67.54,45.33 67.892,44.087 68.24,42.842 C69.387,43.148 70.537,43.458 71.683,43.765 C71.48,44.266 71.26,44.764 71.064,45.268 M37.997,17.299 C37.564,18.46 37.129,19.621 36.711,20.787 C35.393,20.399 34.07,20.021 32.744,19.652 C33.066,18.241 33.39,16.832 33.675,15.409 C35.107,16.062 36.548,16.696 37.997,17.299 M17.773,37.37 C18.305,37.569 18.836,37.764 19.367,37.966 L20.555,38.386 C20.197,39.627 19.843,40.869 19.499,42.116 C18.527,41.86 17.557,41.603 16.586,41.348 C16.994,40.033 17.385,38.714 17.768,37.391 L17.773,37.37 M21.541,52.89 C20.406,52.598 19.261,52.329 18.12,52.045 C18.583,50.784 19.232,48.942 19.522,48.094 C19.886,48.238 20.25,48.382 20.614,48.526 C20.792,48.608 21.599,48.909 22.589,49.274 C22.5,49.606 22.404,49.937 22.318,50.269 C22.23,50.643 21.942,51.751 21.64,52.916 L21.541,52.89 M29.045,65.246 C29.249,64.701 29.452,64.152 29.658,63.605 C29.684,63.539 29.862,63.036 30.112,62.321 C31.277,62.75 32.444,63.173 33.613,63.586 L32.802,66.462 C31.555,66.042 30.302,65.639 29.045,65.246 M65.77,61.212 C65.656,61.631 65.559,62.053 65.449,62.473 C64.41,62.05 63.37,61.623 62.325,61.216 C62.79,59.952 63.236,58.682 63.675,57.411 C64.662,57.687 65.649,57.965 66.638,58.233 C66.341,59.224 66.044,60.215 65.77,61.212 M72.598,59.62 C71.271,59.088 69.939,58.577 68.604,58.068 C69.076,56.762 69.532,55.45 69.976,54.136 C71.487,54.556 73.008,54.947 74.523,55.35 C73.955,56.818 73.318,58.245 72.598,59.62 M118.19,125.313 L117.943,125.428 L118.185,125.308 L118.213,125.293 L118.19,125.313 M117.726,125.52 C117.583,125.563 117.369,125.581 117.292,125.579 L117.466,125.562 C117.574,125.548 117.684,125.523 117.792,125.492 L117.726,125.52 M116.815,122.103 L116.841,122.089 C116.939,122.063 117.038,122.046 117.133,122.04 L117.273,122.039 C117.185,122.039 116.969,122.06 116.815,122.103 M269.17,157.192 C274.157,157.194 289.022,157.408 297.985,159.779 C302.366,160.941 313.757,165.21 325.815,169.731 C345.644,177.162 366.146,184.849 371.989,185.267 C375.87,185.544 381.675,186.054 387.343,186.552 C395.304,187.252 402.821,187.912 404.823,187.912 C410.579,187.912 429.997,189.101 432.728,190.566 L432.849,190.737 C431.677,191.513 429.677,192.537 428.599,192.537 C427.286,192.537 419.808,193.289 412.56,194.288 C397.044,196.428 396.856,197.568 396.593,199.146 C396.157,201.767 399.204,203.301 404.628,205.784 C405.919,206.377 407.69,207.189 408.044,207.477 L408.177,207.624 C407.294,207.536 406.097,207.402 404.923,207.267 C400.591,206.779 394.048,206.041 389.661,205.969 C385.673,205.907 384.138,204.387 381.351,201.628 C380.233,200.524 378.968,199.272 377.354,197.941 C372.591,194.021 366.679,191.669 363.149,190.267 C362.319,189.936 361.603,189.654 361.046,189.405 C358.96,188.478 353.192,187.529 341.386,185.64 C336.048,184.786 329.894,183.8 323.265,182.658 C312.683,180.833 309.183,179.416 307.091,178.568 C305.104,177.765 303.925,177.347 300.802,177.347 C295.501,177.347 272.564,178.008 263.197,178.287 C266.657,171.899 268.52,161.458 269.17,157.192 M555.646,359.551 C554.858,349.877 533.214,301.183 528.569,294.219 C523.722,286.947 515.788,284.213 512.812,285.92 C512.591,286.047 512.185,286.266 511.638,286.564 C505.054,290.146 497.175,294.658 494.661,297.793 C493.017,299.851 493.011,299.857 491.573,299.799 C490.81,299.769 489.823,299.74 488.472,299.775 C482.573,299.976 476.624,299.201 470.694,297.951 C463.649,296.469 456.626,294.307 449.745,292.172 L448.997,291.939 C443.39,290.199 439.165,288.896 435.423,288.053 C429.292,286.668 424.474,286.537 417.167,287.869 C415.589,288.156 413.905,288.504 412.056,288.928 C405.274,290.484 384.649,295.215 377.319,294.342 C371.483,293.641 356.874,287.359 356.728,287.297 L355.53,286.779 L354.901,287.371 C352.253,284.535 346.63,279.867 339.933,276.247 C330.771,271.295 313.931,248.012 314.177,249.499 C314.425,250.986 314.507,276.611 308.728,285.906 C305.157,291.648 295.849,302.252 295.849,302.252 C295.849,302.252 297.583,299.033 306.003,285.658 C314.425,272.285 310.462,245.537 306.499,240.089 C302.534,234.64 292.63,224.98 287.181,222.751 C284.88,221.812 275.517,230.76 265.467,241.413 C273.837,229.947 281.048,219.632 280.657,218.624 C279.749,216.272 264.479,199.141 258.533,192.866 C252.59,186.591 247.306,190.886 244.004,188.573 C240.704,186.261 246.317,184.942 247.306,185.603 C248.298,186.261 252.59,186.261 255.562,185.603 C256.173,185.466 257.11,184.255 258.193,182.401 L259.359,182.367 C259.706,182.354 294.302,181.309 300.802,181.309 C303.298,181.309 303.974,181.582 305.603,182.241 C307.841,183.148 311.589,184.667 322.591,186.563 C329.237,187.71 335.407,188.697 340.757,189.553 C349.866,191.009 357.731,192.267 359.438,193.027 C360.036,193.291 360.798,193.595 361.687,193.948 C365.214,195.35 370.548,197.473 374.833,201 C376.308,202.217 377.507,203.402 378.562,204.444 C381.489,207.343 384.019,209.843 389.601,209.933 C393.794,210 400.222,210.725 404.478,211.206 C407.366,211.531 408.784,211.688 409.444,211.688 C410.751,211.688 411.813,211.003 412.29,209.854 C413.007,208.119 412.106,205.935 410.847,204.677 C410.144,203.97 408.796,203.337 406.276,202.181 C405.118,201.651 403.335,200.834 402.019,200.109 C405.503,199.272 412.353,198.276 418.265,197.542 C423.188,196.93 427.466,196.5 428.599,196.5 C430.55,196.5 432.755,195.415 434.126,194.609 C434.587,194.339 434.952,194.099 435.183,193.942 C436.048,193.545 437.991,192.43 437.925,190.505 C437.88,189.144 436.907,188.109 435.042,187.426 C434.099,186.874 432.528,186.41 430.595,186.015 C425.548,184.989 417.991,184.464 412.358,184.199 C408.081,183.999 404.915,183.95 404.823,183.95 C402.995,183.95 395.216,183.266 387.69,182.603 C381.999,182.105 376.169,181.592 372.271,181.314 C367.001,180.936 344.937,172.666 327.208,166.018 C314.528,161.266 303.571,157.159 298.997,155.948 C287.636,152.94 268.236,153.228 267.416,153.24 L265.707,153.269 L265.677,153.501 C261.133,150.787 249.452,149.407 241.692,146.636 C232.446,143.332 229.144,142.011 220.229,139.702 C214.152,138.126 196.275,141.455 185.184,143.739 C185.263,140.578 185.246,137.065 184.894,134.831 C184.151,130.125 185.886,120.301 186.876,117.576 C186.876,117.576 185.999,116.267 184.839,114.488 C182.917,111.542 180.217,107.305 179.445,105.605 C178.944,104.503 177.216,103.315 174.987,101.934 C171.708,99.907 167.333,97.455 164.09,94.212 C163.16,93.282 162.229,92.534 161.299,91.909 C156.795,88.879 152.345,88.963 148.241,87.525 C143.287,85.791 140.811,87.032 138.829,86.287 C136.847,85.543 129.417,90.002 129.417,90.002 L127.726,93.384 C131.898,94.567 136.033,95.861 140.083,97.379 C145.105,99.293 150.046,101.416 154.873,103.759 C159.684,106.133 164.398,108.707 168.946,111.548 C171.226,112.956 173.438,114.476 175.604,116.053 C177.693,117.705 179.918,119.31 181.427,121.539 C179.854,119.362 177.589,117.836 175.458,116.253 C173.251,114.748 171.003,113.305 168.69,111.972 C164.074,109.283 159.306,106.865 154.451,104.655 C149.582,102.474 144.615,100.52 139.581,98.778 C135.397,97.354 131.143,96.171 126.865,95.108 L122.211,104.412 L121.411,104.036 L120.999,105.725 C120.911,106.084 120.809,106.439 120.719,106.798 C120.579,107.37 120.42,107.937 120.276,108.509 C119.722,110.697 119.179,112.892 118.576,115.056 C118.138,116.597 117.708,118.14 117.236,119.639 C117,120.384 116.75,121.131 116.482,121.8 C116.403,122.007 116.299,122.231 116.222,122.381 C116.102,122.469 115.98,122.574 115.842,122.739 C115.689,122.932 115.576,123.166 115.515,123.384 C115.457,123.617 115.474,123.602 115.458,123.728 C115.443,123.905 115.462,124.129 115.49,124.26 L115.542,124.459 C115.699,124.909 115.781,124.988 115.861,125.14 L116.082,125.481 C116.593,126.214 117.069,126.799 117.546,127.404 L117.634,127.515 L118.371,128.448 L118.615,128.773 C118.594,128.882 118.567,129.014 118.542,129.137 L118.285,130.243 L117.689,132.539 C116.856,135.62 115.949,138.719 115.024,141.791 L114.487,143.578 L116.259,144.193 L120.693,145.736 C120.601,146.336 120.5,146.935 120.418,147.543 C120.273,148.755 120.098,149.782 120.09,151.301 C120.097,151.418 120.084,151.465 120.117,151.697 L120.166,151.983 L120.194,152.125 L120.214,152.205 C120.25,152.317 120.298,152.436 120.361,152.557 L120.491,152.761 C120.514,152.859 120.544,153.007 120.566,153.167 C120.617,153.475 120.648,153.83 120.684,154.175 C114.886,154.049 102.174,153.828 97.386,154.891 C96.738,155.034 96.136,155.204 95.552,155.384 C92.977,156.162 91.044,157.192 89.794,157.99 L89.413,157.809 L88.904,157.839 C81.157,158.301 75.036,157.086 74.23,156.05 C72.299,153.349 65.765,149.595 62.479,148.872 C59.65,148.249 44.695,145.776 44.061,145.673 L42.883,145.477 L42.831,145.544 C40.721,143.704 37.326,141.166 36.187,140.32 C36.278,139.912 36.33,139.518 36.287,139.17 L36.197,138.865 C33.256,132.743 29.652,128.117 25.481,125.109 L24.303,124.263 C25.242,119.937 26.332,114.894 26.931,112.04 L27.791,111.74 L27.862,111.715 C29.024,109.498 39.304,90.153 47.559,82.862 C52.794,82.026 57.905,79.984 62.598,76.782 C69.775,71.885 75.23,64.742 78.38,56.361 C78.805,56.468 79.227,56.59 79.653,56.696 C79.248,56.534 78.837,56.391 78.429,56.233 C79.052,54.561 79.615,52.859 80.046,51.096 C85.45,28.999 73.601,7.048 53.634,2.167 C43.928,-0.211 33.777,1.755 25.068,7.698 C17.862,12.616 12.39,19.793 9.246,28.221 C8.882,28.127 8.522,28.02 8.159,27.928 C8.504,28.067 8.856,28.192 9.205,28.331 C8.596,29.975 8.044,31.649 7.621,33.382 C3.932,48.464 8.291,63.47 17.773,73.035 C18.556,78.748 18.657,100.582 17.415,108.433 L17.579,108.458 C17.048,109.775 16.383,112.334 15.685,115.343 C13.78,114.77 10.129,113.922 8.8,115.437 C6.176,118.439 4.898,120.464 5.001,121.461 C5.034,121.761 5.16,122.026 5.362,122.225 C5.529,122.768 5.337,124.691 5.16,125.571 C5.017,125.787 4.28,126.277 3.883,126.542 C3.058,127.093 2.513,127.456 2.334,127.995 C2.319,128.037 1.188,132.308 2.467,133.81 C2.531,134.243 1.584,135.696 0.591,136.689 C-0.091,137.371 -0.183,139.111 0.317,141.859 L0.454,142.211 C4.588,148.758 5.434,149.095 5.71,149.205 C6.199,149.402 8.421,149.721 10.769,149.73 C13.229,150.513 16.566,151.406 17.947,151.017 C17.992,151.533 18.084,152.05 18.292,152.548 C19.138,154.578 20.759,155.157 22.169,155.157 C22.883,155.157 23.541,155.009 24.019,154.826 L24.317,154.645 L24.422,154.553 C25.956,155.865 29.457,158.855 31.471,160.48 L31.022,161.069 L32.019,162.282 C32.403,162.75 41.481,173.781 44.187,176.315 C47.311,179.246 62.522,184.06 67.246,183.084 C68.838,182.758 73.833,183.632 79.123,184.56 C79.284,184.59 79.456,184.619 79.619,184.648 C85.056,185.603 91.613,186.728 97.951,187.227 C97.865,187.344 97.807,187.468 97.715,187.582 C107.954,187.252 110.924,187.582 110.924,187.582 C110.924,187.582 124.794,194.187 131.398,201.123 C132.192,201.957 133.04,202.958 133.935,204.08 C137.625,208.706 142.14,215.467 147.196,221.847 C151.116,226.792 155.358,231.506 159.796,234.805 C171.355,243.389 184.565,249.003 190.838,254.947 C197.112,260.892 203.388,254.618 210.651,260.562 C217.917,266.505 226.833,273.111 230.796,275.751 C232.973,277.204 235.845,276.559 237.994,275.686 C238.515,276.571 239.062,277.695 239.381,278.972 C240.125,281.944 242.6,283.43 239.381,290.611 C236.378,297.31 226.27,323.812 223.314,332.783 L222.1,332.146 L222.006,335.314 C221.915,338.396 219.689,344.168 217.534,349.748 C215.383,355.322 213.158,361.088 212.648,365.16 C212.333,367.705 211.722,369.592 211.131,371.414 C209.986,374.951 208.906,378.295 211.302,384.006 C214.117,390.719 215.983,400.478 216.685,404.152 L216.878,405.152 C217.354,408.197 216.687,450.557 215.75,454.053 C215.487,455.023 215.103,457.043 214.573,459.834 C214.297,461.291 213.883,463.467 213.382,465.945 C211.779,473.871 209.261,484.986 207.279,486.383 C205.356,487.738 204.497,487.225 203.505,486.627 C202.904,486.266 201.658,485.51 200.39,486.353 C198.928,487.328 197.893,490.914 197.697,492.039 C197.55,492.904 197.438,494.16 198.09,495 C198.09,495.002 198.139,495.182 198.039,495.295 C197.816,495.551 196.77,495.92 194.43,495.467 C191.058,494.818 189.307,495.049 188.389,496.258 C187.812,497.014 187.737,498.004 188.183,498.902 C188.427,499.396 188.862,499.898 189.382,500.273 C185.972,501.463 179.484,503.285 175.003,504.408 C171.824,505.201 162.301,509.467 157.047,511.969 C154.269,513.293 153.094,515.295 152.595,516.744 C152.042,518.348 152.051,520.115 152.593,521.195 L152.7,521.475 C156.635,532.172 166.409,538.928 180.212,540.492 C183.921,540.916 187.071,541.1 189.822,541.1 C197.91,541.1 202.535,539.516 207.679,537.75 C211.319,536.504 215.082,535.215 220.635,534.289 C235.567,531.799 236.265,526.607 235.749,521.935 C235.719,521.693 235.693,521.465 235.677,521.248 C236.796,517.932 236.885,513.547 236.958,509.996 C236.994,508.291 237.038,506.172 237.226,505.656 C237.467,505.119 238.204,503.484 237.389,502.047 C236.709,500.844 235.466,500.578 234.59,500.463 C235.425,496.273 239.201,481.289 241.807,471.57 C242.935,467.357 243.847,464.129 244.203,463.205 C245.423,460.033 256.5,421.517 255.473,406.633 C255.04,400.328 253.655,394.678 252.542,390.139 C251.154,384.469 250.054,379.986 251.49,377.56 C254.648,372.217 273.087,344.252 273.275,343.971 L274.097,342.721 C275.974,342.576 277.712,342.379 279.255,342.127 C280.493,336.183 288.669,314.389 289.657,313.15 C290.649,311.912 329.036,324.541 329.036,324.541 C329.036,324.541 329.085,324.344 329.169,324.025 C335.843,325.465 351.847,329.182 355.573,331.23 C359.271,333.266 362.388,333.928 364.899,334.148 C366.138,334.258 367.237,334.267 368.167,334.267 C370.288,334.267 373.474,332.865 377.735,330.889 C379.601,330.025 381.362,329.207 382.345,328.922 C383.294,328.644 389.556,327.58 398.003,326.43 C414.116,324.236 438.185,321.726 448.522,323.762 L448.812,323.818 L449.104,323.791 C452.249,323.478 458.306,324.058 464.796,325.062 C475.743,326.754 487.925,329.646 489.472,331.488 C490.937,333.291 491.704,333.967 492.185,334.328 C492.226,334.455 492.278,334.617 492.351,334.828 C493.255,337.547 494.55,337.91 496.589,338.279 C497.034,338.357 497.575,338.457 498.3,338.623 C501.716,339.41 502.407,339.713 502.673,341.437 C502.823,342.414 503.321,343.209 504.114,343.744 C506.007,345.01 508.95,344.301 511.798,343.613 C512.741,343.387 514.153,343.043 514.491,343.043 L514.507,343.045 C515.53,343.422 519.335,346.848 521.61,348.894 C523.431,350.535 525.149,352.082 526.438,353.096 C529.642,355.611 537.124,364.754 538.243,367.219 C539.778,370.594 546.147,372.629 547.409,373.004 L548.021,373.183 L548.622,372.976 C548.942,372.865 556.501,370.123 555.646,359.551" fill="#0B0B09"/>
  </g>
</svg>
